<svg width="6" height="6" viewBox="0 0 6 6" fill="none" xmlns="http://www.w3.org/2000/svg">
  <path
    d="M1.70711 0.292893C1.31658 -0.0976311 0.683417 -0.0976311 0.292893 0.292893C-0.0976311 0.683417 -0.0976311 1.31658 0.292893 1.70711L1.58579 3L0.292893 4.29289C-0.0976311 4.68342 -0.0976311 5.31658 0.292893 5.70711C0.683417 6.09763 1.31658 6.09763 1.70711 5.70711L3 4.41421L4.29289 5.70711C4.68342 6.09763 5.31658 6.09763 5.70711 5.70711C6.09763 5.31658 6.09763 4.68342 5.70711 4.29289L4.41421 3L5.70711 1.70711C6.09763 1.31658 6.09763 0.683417 5.70711 0.292893C5.31658 -0.0976311 4.68342 -0.0976311 4.29289 0.292893L3 1.58579L1.70711 0.292893Z"
    fill="#171717" />
</svg>