<svg width="20" height="18" viewBox="0 0 20 18" fill="none" xmlns="http://www.w3.org/2000/svg">
<path d="M9.33309 2.27292L10 2.86983L10.6669 2.27292C11.5522 1.48059 12.7188 1 14 1C16.7614 1 19 3.23862 19 6.00005C19 9.33762 17.4962 11.7945 15.6632 13.5686C13.8154 15.357 11.6632 16.417 10.4992 16.9024L10.884 17.8254L10.4992 16.9024C10.176 17.0371 9.82401 17.0371 9.50084 16.9024C8.33678 16.417 6.18456 15.357 4.33677 13.5686C2.50381 11.7945 1 9.33756 1 6C1 3.23858 3.23858 1 6 1C7.28123 1 8.44783 1.48059 9.33309 2.27292Z" stroke="black" stroke-width="2"/>
</svg>
