<svg width="24" height="24" viewBox="0 0 24 24" fill="none" xmlns="http://www.w3.org/2000/svg">
<path d="M12 2C11.4477 2 11 2.44772 11 3C11 3.55228 11.4477 4 12 4C12.5523 4 13 3.55228 13 3C13 2.44772 12.5523 2 12 2Z" fill="#171717"/>
<path d="M12 20C11.4477 20 11 20.4477 11 21C11 21.5523 11.4477 22 12 22C12.5523 22 13 21.5523 13 21C13 20.4477 12.5523 20 12 20Z" fill="#171717"/>
<path d="M21 11C21.5523 11 22 11.4477 22 12C22 12.5523 21.5523 13 21 13C20.4477 13 20 12.5523 20 12C20 11.4477 20.4477 11 21 11Z" fill="#171717"/>
<path d="M4 12C4 11.4477 3.55228 11 3 11C2.44772 11 2 11.4477 2 12C2 12.5523 2.44772 13 3 13C3.55228 13 4 12.5523 4 12Z" fill="#171717"/>
<path d="M17.6569 4.92891C18.0474 4.53838 18.6806 4.53838 19.0711 4.92891C19.4616 5.31943 19.4616 5.9526 19.0711 6.34312C18.6806 6.73365 18.0474 6.73365 17.6569 6.34312C17.2664 5.9526 17.2664 5.31943 17.6569 4.92891Z" fill="#171717"/>
<path d="M6.34309 17.6568C5.95257 17.2663 5.3194 17.2663 4.92888 17.6568C4.53836 18.0473 4.53836 18.6805 4.92888 19.071C5.3194 19.4616 5.95257 19.4616 6.34309 19.071C6.73362 18.6805 6.73362 18.0473 6.34309 17.6568Z" fill="#171717"/>
<path d="M19.0711 17.6569C19.4616 18.0474 19.4616 18.6806 19.0711 19.0711C18.6806 19.4616 18.0474 19.4616 17.6569 19.0711C17.2664 18.6806 17.2664 18.0474 17.6569 17.6569C18.0474 17.2664 18.6806 17.2664 19.0711 17.6569Z" fill="#171717"/>
<path d="M6.34319 6.34309C6.73371 5.95257 6.73371 5.3194 6.34319 4.92888C5.95266 4.53836 5.3195 4.53836 4.92897 4.92888C4.53845 5.3194 4.53845 5.95257 4.92897 6.34309C5.3195 6.73362 5.95266 6.73362 6.34319 6.34309Z" fill="#171717"/>
<path fill-rule="evenodd" clip-rule="evenodd" d="M12 14C13.1046 14 14 13.1046 14 12C14 10.8954 13.1046 10 12 10C10.8954 10 10 10.8954 10 12C10 13.1046 10.8954 14 12 14ZM12 16C14.2091 16 16 14.2091 16 12C16 9.79086 14.2091 8 12 8C9.79086 8 8 9.79086 8 12C8 14.2091 9.79086 16 12 16Z" fill="#262626"/>
</svg>
